<?xml version="1.0"?>
<svg xmlns="http://www.w3.org/2000/svg" id="Layer_1" height="512px" viewBox="0 0 512 512" width="512px" data-name="Layer 1"><g><path d="m387.384 366.308a24.308 24.308 0 1 0 24.308 24.307 24.334 24.334 0 0 0 -24.308-24.307zm0 36.615a12.308 12.308 0 1 1 12.308-12.308 12.321 12.321 0 0 1 -12.308 12.308z" data-original="#000000" class="active-path" data-old_color="#000000" fill="#FFC400"/><path d="m449.846 366.308a24.308 24.308 0 1 0 24.308 24.307 24.334 24.334 0 0 0 -24.308-24.307zm0 36.615a12.308 12.308 0 1 1 12.308-12.308 12.321 12.321 0 0 1 -12.308 12.308z" data-original="#000000" class="active-path" data-old_color="#000000" fill="#FFC400"/><path d="m270.646 368.462a6 6 0 0 0 -6 6v32.307a6 6 0 0 0 12 0v-32.307a6 6 0 0 0 -6-6z" data-original="#000000" class="active-path" data-old_color="#000000" fill="#FFC400"/><path d="m387.384 215.539a24.308 24.308 0 1 0 24.308 24.307 24.334 24.334 0 0 0 -24.308-24.307zm0 36.615a12.308 12.308 0 1 1 12.308-12.308 12.321 12.321 0 0 1 -12.308 12.308z" data-original="#000000" class="active-path" data-old_color="#000000" fill="#FFC400"/><path d="m449.846 215.539a24.308 24.308 0 1 0 24.308 24.307 24.334 24.334 0 0 0 -24.308-24.307zm0 36.615a12.308 12.308 0 1 1 12.308-12.308 12.321 12.321 0 0 1 -12.308 12.308z" data-original="#000000" class="active-path" data-old_color="#000000" fill="#FFC400"/><path d="m185.354 217.692a6 6 0 0 0 -6 6v32.308a6 6 0 0 0 12 0v-32.308a6 6 0 0 0 -6-6z" data-original="#000000" class="active-path" data-old_color="#000000" fill="#FFC400"/><path d="m213.785 217.692a6 6 0 0 0 -6 6v32.308a6 6 0 0 0 12 0v-32.308a6 6 0 0 0 -6-6z" data-original="#000000" class="active-path" data-old_color="#000000" fill="#FFC400"/><path d="m242.215 217.692a6 6 0 0 0 -6 6v32.308a6 6 0 0 0 12 0v-32.308a6 6 0 0 0 -6-6z" data-original="#000000" class="active-path" data-old_color="#000000" fill="#FFC400"/><path d="m270.646 217.692a6 6 0 0 0 -6 6v32.308a6 6 0 0 0 12 0v-32.308a6 6 0 0 0 -6-6z" data-original="#000000" class="active-path" data-old_color="#000000" fill="#FFC400"/><path d="m490.231 18.462h-355.385a16.787 16.787 0 0 0 -16.769 16.769v107.692a16.787 16.787 0 0 0 16.769 16.769h37.077v9.539h-37.077a16.788 16.788 0 0 0 -16.769 16.769v69.535a119.077 119.077 0 1 0 87.543 205.7h284.611a16.788 16.788 0 0 0 16.769-16.773v-107.693a16.788 16.788 0 0 0 -16.769-16.769h-37.077v-9.538h37.077a16.788 16.788 0 0 0 16.769-16.77v-107.692a16.788 16.788 0 0 0 -16.769-16.769h-37.077v-9.539h37.077a16.787 16.787 0 0 0 16.769-16.769v-107.692a16.787 16.787 0 0 0 -16.769-16.769zm-49.077 154h-257.231v-17.077h257.231zm-424.154 202a107.028 107.028 0 0 1 186.508-71.729 6.017 6.017 0 0 0 2.141 2.447 107.055 107.055 0 1 1 -188.649 69.282zm424.154-51.231h-209.6a119.133 119.133 0 0 0 -10-17.077h219.6zm53.846 13.538v107.693a4.775 4.775 0 0 1 -4.769 4.769h-273.469a117.957 117.957 0 0 0 20.83-38.638 6 6 0 0 0 10.623-3.824v-32.307a6 6 0 0 0 -5.21-5.943 118.289 118.289 0 0 0 -6.5-33.288h210.649a6 6 0 0 0 5.319-3.231h37.758a4.774 4.774 0 0 1 4.769 4.769zm0-150.769v107.692a4.775 4.775 0 0 1 -4.769 4.77h-37.323a6 6 0 0 0 -5.754-4.308h-235.236a119.348 119.348 0 0 0 -51.685-33.154 5.992 5.992 0 0 0 2.69-5v-32.308a6 6 0 0 0 -12 0v32.308a5.962 5.962 0 0 0 .59 2.58 118.682 118.682 0 0 0 -21.436-3.045v-69.535a4.774 4.774 0 0 1 4.769-4.769h37.754a6 6 0 0 0 5.319 3.231h269.235a6 6 0 0 0 5.319-3.231h37.758a4.774 4.774 0 0 1 4.769 4.769zm0-43.077a4.774 4.774 0 0 1 -4.769 4.769h-37.323a6 6 0 0 0 -5.754-4.307h-269.231a6 6 0 0 0 -5.754 4.307h-37.323a4.774 4.774 0 0 1 -4.769-4.769v-107.692a4.774 4.774 0 0 1 4.769-4.769h355.385a4.774 4.774 0 0 1 4.769 4.769z" data-original="#000000" class="active-path" data-old_color="#000000" fill="#FFC400"/><path d="m387.384 64.769a24.308 24.308 0 1 0 24.308 24.308 24.335 24.335 0 0 0 -24.308-24.308zm0 36.616a12.308 12.308 0 1 1 12.308-12.308 12.322 12.322 0 0 1 -12.308 12.308z" data-original="#000000" class="active-path" data-old_color="#000000" fill="#FFC400"/><path d="m449.846 64.769a24.308 24.308 0 1 0 24.308 24.308 24.335 24.335 0 0 0 -24.308-24.308zm0 36.616a12.308 12.308 0 1 1 12.308-12.308 12.322 12.322 0 0 1 -12.308 12.308z" data-original="#000000" class="active-path" data-old_color="#000000" fill="#FFC400"/><path d="m156.923 66.923a6 6 0 0 0 -6 6v32.308a6 6 0 0 0 12 0v-32.308a6 6 0 0 0 -6-6z" data-original="#000000" class="active-path" data-old_color="#000000" fill="#FFC400"/><path d="m185.354 66.923a6 6 0 0 0 -6 6v32.308a6 6 0 1 0 12 0v-32.308a6 6 0 0 0 -6-6z" data-original="#000000" class="active-path" data-old_color="#000000" fill="#FFC400"/><path d="m213.785 66.923a6 6 0 0 0 -6 6v32.308a6 6 0 0 0 12 0v-32.308a6 6 0 0 0 -6-6z" data-original="#000000" class="active-path" data-old_color="#000000" fill="#FFC400"/><path d="m242.215 66.923a6 6 0 0 0 -6 6v32.308a6 6 0 1 0 12 0v-32.308a6 6 0 0 0 -6-6z" data-original="#000000" class="active-path" data-old_color="#000000" fill="#FFC400"/><path d="m270.646 66.923a6 6 0 0 0 -6 6v32.308a6 6 0 0 0 12 0v-32.308a6 6 0 0 0 -6-6z" data-original="#000000" class="active-path" data-old_color="#000000" fill="#FFC400"/><path d="m165.433 336.556h-2.142v-19.688a39.214 39.214 0 1 0 -78.428 0v19.688h-2.143a20.023 20.023 0 0 0 -20 20v82.713a20.023 20.023 0 0 0 20 20h82.713a20.023 20.023 0 0 0 20-20v-82.713a20.023 20.023 0 0 0 -20-20zm-68.57-19.688a27.214 27.214 0 1 1 54.428 0v19.688h-54.428zm76.57 122.4a8.009 8.009 0 0 1 -8 8h-82.713a8.009 8.009 0 0 1 -8-8v-82.712a8.009 8.009 0 0 1 8-8h6.845a5.878 5.878 0 0 0 2.595 0h63.833a5.878 5.878 0 0 0 2.595 0h6.845a8.009 8.009 0 0 1 8 8z" data-original="#000000" class="active-path" data-old_color="#000000" fill="#FFC400"/><path d="m124.077 400.769a11 11 0 1 0 11 11 11.012 11.012 0 0 0 -11-11zm0 12a1 1 0 1 1 1-1 1 1 0 0 1 -1 1z" data-original="#000000" class="active-path" data-old_color="#000000" fill="#FFC400"/></g> </svg>
