<?xml version="1.0"?>
<svg xmlns="http://www.w3.org/2000/svg" id="Layer_1" enable-background="new 0 0 256 256" height="512px" viewBox="0 0 256 256" width="512px" class=""><g><g><g fill="#ebe7f2"><path d="m149.777 173.888c-1.381 0-2.5-1.119-2.5-2.5v-4.348c0-1.381 1.119-2.5 2.5-2.5s2.5 1.119 2.5 2.5v4.348c0 1.381-1.119 2.5-2.5 2.5z" data-original="#EBE7F2" class="active-path" style="fill:#FFC400" data-old_color="#EBE7F2"/><path d="m213.7 190.249h-171.4c-1.381 0-2.5-1.119-2.5-2.5v-102.195c0-1.381 1.119-2.5 2.5-2.5h43.516c1.381 0 2.5 1.119 2.5 2.5s-1.119 2.5-2.5 2.5h-41.016v97.195h166.4v-97.195h-40.081c-1.381 0-2.5-1.119-2.5-2.5s1.119-2.5 2.5-2.5h42.581c1.381 0 2.5 1.119 2.5 2.5v102.195c0 1.381-1.119 2.5-2.5 2.5z" data-original="#EBE7F2" class="active-path" style="fill:#FFC400" data-old_color="#EBE7F2"/><path d="m62.669 173.888c-1.381 0-2.5-1.119-2.5-2.5v-13.316c0-1.381 1.119-2.5 2.5-2.5s2.5 1.119 2.5 2.5v13.316c0 1.381-1.119 2.5-2.5 2.5z" data-original="#EBE7F2" class="active-path" style="fill:#FFC400" data-old_color="#EBE7F2"/><path d="m62.669 149.34c-1.381 0-2.5-1.119-2.5-2.5v-47.33c0-1.381 1.119-2.5 2.5-2.5s2.5 1.119 2.5 2.5v47.33c0 1.381-1.119 2.5-2.5 2.5z" data-original="#EBE7F2" class="active-path" style="fill:#FFC400" data-old_color="#EBE7F2"/><path d="m84.446 173.888c-1.381 0-2.5-1.119-2.5-2.5v-71.878c0-1.381 1.119-2.5 2.5-2.5s2.5 1.119 2.5 2.5v71.878c0 1.381-1.119 2.5-2.5 2.5z" data-original="#EBE7F2" class="active-path" style="fill:#FFC400" data-old_color="#EBE7F2"/><path d="m106.223 173.888c-1.381 0-2.5-1.119-2.5-2.5v-44.237c0-1.381 1.119-2.5 2.5-2.5s2.5 1.119 2.5 2.5v44.237c0 1.381-1.119 2.5-2.5 2.5z" data-original="#EBE7F2" class="active-path" style="fill:#FFC400" data-old_color="#EBE7F2"/><path d="m106.223 117.749c-1.381 0-2.5-1.119-2.5-2.5v-4.628c0-1.381 1.119-2.5 2.5-2.5s2.5 1.119 2.5 2.5v4.628c0 1.381-1.119 2.5-2.5 2.5z" data-original="#EBE7F2" class="active-path" style="fill:#FFC400" data-old_color="#EBE7F2"/><path d="m128 173.888c-1.381 0-2.5-1.119-2.5-2.5v-54.407c0-1.381 1.119-2.5 2.5-2.5s2.5 1.119 2.5 2.5v54.407c0 1.381-1.119 2.5-2.5 2.5z" data-original="#EBE7F2" class="active-path" style="fill:#FFC400" data-old_color="#EBE7F2"/><path d="m149.777 158.308c-1.381 0-2.5-1.119-2.5-2.5v-45.188c0-1.381 1.119-2.5 2.5-2.5s2.5 1.119 2.5 2.5v45.188c0 1.381-1.119 2.5-2.5 2.5z" data-original="#EBE7F2" class="active-path" style="fill:#FFC400" data-old_color="#EBE7F2"/><path d="m171.554 173.888c-1.381 0-2.5-1.119-2.5-2.5v-71.878c0-1.381 1.119-2.5 2.5-2.5s2.5 1.119 2.5 2.5v71.878c0 1.381-1.119 2.5-2.5 2.5z" data-original="#EBE7F2" class="active-path" style="fill:#FFC400" data-old_color="#EBE7F2"/><path d="m193.331 173.888c-1.381 0-2.5-1.119-2.5-2.5v-47.733c0-1.381 1.119-2.5 2.5-2.5s2.5 1.119 2.5 2.5v47.733c0 1.381-1.119 2.5-2.5 2.5z" data-original="#EBE7F2" class="active-path" style="fill:#FFC400" data-old_color="#EBE7F2"/><path d="m193.331 114.977c-1.381 0-2.5-1.119-2.5-2.5v-12.967c0-1.381 1.119-2.5 2.5-2.5s2.5 1.119 2.5 2.5v12.967c0 1.38-1.119 2.5-2.5 2.5z" data-original="#EBE7F2" class="active-path" style="fill:#FFC400" data-old_color="#EBE7F2"/></g><path d="m153.797 160.006c-.65 0-1.301-.252-1.79-.755-.964-.989-.943-2.571.045-3.535l35.98-35.065c.99-.963 2.573-.943 3.535.046.964.989.943 2.571-.045 3.535l-35.98 35.065c-.486.474-1.116.709-1.745.709z" fill="#a58bc9" data-original="#A58BC9" class="" style="fill:#FFC400" data-old_color="#a58bc9"/><path d="m145.591 160.183c-.593 0-1.188-.21-1.665-.636l-35.676-31.892c-1.029-.92-1.118-2.5-.198-3.53.921-1.03 2.502-1.118 3.53-.198l35.676 31.892c1.029.92 1.118 2.5.198 3.53-.494.552-1.179.834-1.865.834z" fill="#a58bc9" data-original="#A58BC9" class="" style="fill:#FFC400" data-old_color="#a58bc9"/><path d="m67.248 151.709c-.783 0-1.554-.367-2.041-1.054-.799-1.126-.533-2.687.593-3.485l34.399-24.397c1.128-.799 2.688-.532 3.485.593.799 1.126.533 2.687-.593 3.485l-34.399 24.397c-.439.312-.944.461-1.444.461z" fill="#a58bc9" data-original="#A58BC9" class="" style="fill:#FFC400" data-old_color="#a58bc9"/><g fill="#846f75"><path d="m172.873 74.607h49.792c1.587 0 2.878 1.292 2.878 2.879v110.263c0 1.381 1.119 2.5 2.5 2.5s2.5-1.119 2.5-2.5v-110.263c0-4.344-3.534-7.879-7.878-7.879h-49.792c-1.381 0-2.5 1.119-2.5 2.5s1.119 2.5 2.5 2.5z" data-original="#846F75" class="" style="fill:#FFC400" data-old_color="#846F75"/><path d="m27.957 190.249c1.381 0 2.5-1.119 2.5-2.5v-110.263c0-1.587 1.291-2.879 2.878-2.879h49.792c1.381 0 2.5-1.119 2.5-2.5s-1.119-2.5-2.5-2.5h-49.792c-4.344 0-7.878 3.535-7.878 7.879v110.263c0 1.381 1.119 2.5 2.5 2.5z" data-original="#846F75" class="" style="fill:#FFC400" data-old_color="#846F75"/><path d="m236.47 198.696h-216.94c-6.223 0-11.285 5.063-11.285 11.285s5.063 11.285 11.285 11.285h216.94c6.223 0 11.285-5.063 11.285-11.285s-5.063-11.285-11.285-11.285zm0 17.57h-216.94c-3.466 0-6.285-2.819-6.285-6.285s2.819-6.285 6.285-6.285h216.94c3.466 0 6.285 2.819 6.285 6.285s-2.819 6.285-6.285 6.285z" data-original="#846F75" class="" style="fill:#FFC400" data-old_color="#846F75"/><path d="m128 109.481c20.607 0 37.373-16.766 37.373-37.374s-16.766-37.373-37.373-37.373-37.373 16.766-37.373 37.373 16.766 37.374 37.373 37.374zm-32.267-34.874h12.14c.153 4.473.711 8.707 1.611 12.583-2.958.894-5.689 2.003-8.102 3.311-3.178-4.583-5.198-10.021-5.649-15.894zm5.649-20.895c2.414 1.309 5.143 2.419 8.101 3.313-.9 3.876-1.458 8.11-1.61 12.583h-12.14c.451-5.874 2.472-11.313 5.649-15.896zm58.885 15.895h-12.14c-.153-4.473-.71-8.707-1.611-12.583 2.958-.894 5.689-2.003 8.103-3.311 3.177 4.584 5.197 10.022 5.648 15.894zm-5.649 20.896c-2.414-1.309-5.143-2.419-8.101-3.313.9-3.876 1.458-8.11 1.61-12.583h12.14c-.451 5.874-2.472 11.312-5.649 15.896zm-29.102-5.861c-3.87.135-7.637.58-11.177 1.314-.802-3.503-1.31-7.338-1.462-11.349h12.638v10.035zm0 5.004v14.372c-3.991-1.472-7.505-6.403-9.818-13.242 3.104-.621 6.409-1.004 9.818-1.13zm5 14.359v-14.359c3.4.128 6.694.51 9.787 1.129-2.307 6.822-5.81 11.745-9.787 13.23zm0-19.362v-10.036h12.607c-.152 4.011-.66 7.846-1.462 11.349-3.529-.731-7.284-1.177-11.145-1.313zm12.607-15.036h-12.607v-10.036c3.859-.136 7.615-.581 11.146-1.313.801 3.503 1.309 7.338 1.461 11.349zm-12.607-15.039v-14.359c3.978 1.486 7.48 6.409 9.787 13.23-3.095.62-6.39 1.001-9.787 1.129zm-5-14.371v14.373c-3.41-.126-6.715-.509-9.818-1.13 2.312-6.84 5.827-11.771 9.818-13.243zm0 19.376v10.034h-12.638c.152-4.011.66-7.846 1.462-11.349 3.538.734 7.303 1.18 11.176 1.315zm-20.906 34.881c1.884-.95 3.972-1.776 6.221-2.461 1.309 3.927 2.999 7.351 4.986 10.1-4.264-1.738-8.073-4.361-11.207-7.639zm35.572 7.64c1.987-2.75 3.677-6.174 4.986-10.101 2.249.686 4.339 1.509 6.223 2.46-3.133 3.278-6.944 5.901-11.209 7.641zm11.208-52.334c-1.884.951-3.972 1.776-6.221 2.461-1.309-3.927-2.999-7.351-4.986-10.1 4.264 1.739 8.073 4.361 11.207 7.639zm-35.572-7.639c-1.987 2.75-3.677 6.174-4.986 10.101-2.249-.686-4.339-1.509-6.223-2.46 3.133-3.279 6.944-5.902 11.209-7.641z" data-original="#846F75" class="" style="fill:#FFC400" data-old_color="#846F75"/><path d="m54.553 152.456c0 4.475 3.641 8.116 8.116 8.116s8.116-3.641 8.116-8.116-3.641-8.116-8.116-8.116-8.116 3.641-8.116 8.116zm11.232 0c0 1.718-1.397 3.116-3.116 3.116s-3.116-1.397-3.116-3.116 1.397-3.116 3.116-3.116 3.116 1.398 3.116 3.116z" data-original="#846F75" class="" style="fill:#FFC400" data-old_color="#846F75"/><path d="m98.107 121.566c0 4.475 3.641 8.116 8.115 8.116 4.476 0 8.116-3.641 8.116-8.116s-3.641-8.116-8.116-8.116c-4.474 0-8.115 3.641-8.115 8.116zm11.232 0c0 1.718-1.397 3.116-3.116 3.116-1.718 0-3.115-1.398-3.115-3.116s1.397-3.116 3.115-3.116 3.116 1.398 3.116 3.116z" data-original="#846F75" class="" style="fill:#FFC400" data-old_color="#846F75"/><path d="m141.661 161.424c0 4.475 3.641 8.116 8.116 8.116s8.115-3.641 8.115-8.116-3.641-8.116-8.115-8.116c-4.475 0-8.116 3.641-8.116 8.116zm11.232 0c0 1.718-1.397 3.116-3.115 3.116-1.719 0-3.116-1.398-3.116-3.116s1.397-3.116 3.116-3.116c1.717 0 3.115 1.398 3.115 3.116z" data-original="#846F75" class="" style="fill:#FFC400" data-old_color="#846F75"/><path d="m185.215 118.093c0 4.475 3.641 8.116 8.116 8.116s8.116-3.641 8.116-8.116-3.641-8.116-8.116-8.116-8.116 3.641-8.116 8.116zm11.232 0c0 1.718-1.397 3.116-3.116 3.116s-3.116-1.398-3.116-3.116 1.397-3.116 3.116-3.116 3.116 1.398 3.116 3.116z" data-original="#846F75" class="" style="fill:#FFC400" data-old_color="#846F75"/></g></g></g> </svg>
