<?xml version="1.0"?>
<svg xmlns="http://www.w3.org/2000/svg" height="512px" viewBox="0 0 480 480" width="512px" class=""><g><path d="m440 0h-400c-22.082031.0273438-39.9726562 17.917969-40 40v304c.0273438 22.082031 17.917969 39.972656 40 40h134.9375l-6 48h-16.9375c-13.253906 0-24 10.746094-24 24s10.746094 24 24 24h176c13.253906 0 24-10.746094 24-24s-10.746094-24-24-24h-16.9375l-6-48h134.9375c22.082031-.027344 39.972656-17.917969 40-40v-304c-.027344-22.082031-17.917969-39.9726562-40-40zm-400 16h400c13.253906 0 24 10.746094 24 24v24h-448v-24c0-13.253906 10.746094-24 24-24zm424 64v224h-448v-224zm-128 376c0 4.417969-3.582031 8-8 8h-176c-4.417969 0-8-3.582031-8-8s3.582031-8 8-8h176c4.417969 0 8 3.582031 8 8zm-41.0625-24h-109.875l6-48h97.875zm145.0625-64h-400c-13.253906 0-24-10.746094-24-24v-24h448v24c0 13.253906-10.746094 24-24 24zm0 0" data-original="#000000" class="active-path" data-old_color="#000000" fill="#FFC400"/><path d="m416 336h16v16h-16zm0 0" data-original="#000000" class="active-path" data-old_color="#000000" fill="#FFC400"/><path d="m48 32h16v16h-16zm0 0" data-original="#000000" class="active-path" data-old_color="#000000" fill="#FFC400"/><path d="m80 32h16v16h-16zm0 0" data-original="#000000" class="active-path" data-old_color="#000000" fill="#FFC400"/><path d="m112 32h16v16h-16zm0 0" data-original="#000000" class="active-path" data-old_color="#000000" fill="#FFC400"/><path d="m232 200h16v16h-16zm0 0" data-original="#000000" class="active-path" data-old_color="#000000" fill="#FFC400"/><path d="m96 224h-32c-8.835938 0-16 7.164062-16 16v32c0 8.835938 7.164062 16 16 16h32c8.835938 0 16-7.164062 16-16v-8h8c2.121094 0 4.15625-.84375 5.65625-2.34375l45.65625-45.65625h29.488281c3.785157 18.644531 20.175781 32.039062 39.199219 32.039062s35.414062-13.394531 39.199219-32.039062h29.496093l45.65625 45.65625c1.5 1.5 3.53125 2.339844 5.648438 2.34375h8v8c0 8.835938 7.164062 16 16 16h32c8.835938 0 16-7.164062 16-16v-32c0-8.835938-7.164062-16-16-16h-32c-8.835938 0-16 7.164062-16 16v8h-4.6875l-40-40 40-40h4.6875v8c0 8.835938 7.164062 16 16 16h32c8.835938 0 16-7.164062 16-16v-32c0-8.835938-7.164062-16-16-16h-32c-8.835938 0-16 7.164062-16 16v8h-8c-2.121094 0-4.15625.84375-5.65625 2.34375l-45.65625 45.65625h-29.488281c-3.234375-15.699219-15.5-27.964844-31.199219-31.199219v-24.800781h32c4.417969 0 8-3.582031 8-8v-32c0-4.417969-3.582031-8-8-8h-80c-4.417969 0-8 3.582031-8 8v32c0 4.417969 3.582031 8 8 8h32v24.800781c-15.699219 3.234375-27.964844 15.5-31.199219 31.199219h-29.488281l-45.65625-45.65625c-1.5-1.5-3.535156-2.34375-5.65625-2.34375h-8v-8c0-8.835938-7.164062-16-16-16h-32c-8.835938 0-16 7.164062-16 16v32c0 8.835938 7.164062 16 16 16h32c8.835938 0 16-7.164062 16-16v-8h4.6875l40 40-40 40h-4.6875v-8c0-8.835938-7.164062-16-16-16zm0 48h-32v-32h32zm288-32h32v32h-32zm0-96h32v32h-32zm-176-32h64v16h-64zm32 72c13.253906 0 24 10.746094 24 24s-10.746094 24-24 24-24-10.746094-24-24 10.746094-24 24-24zm-144-8h-32v-32h32zm0 0" data-original="#000000" class="active-path" data-old_color="#000000" fill="#FFC400"/></g> </svg>
